<svg xmlns="http://www.w3.org/2000/svg" xmlns:xlink="http://www.w3.org/1999/xlink" width="500" zoomAndPan="magnify" viewBox="0 0 375 374.999991" height="500" preserveAspectRatio="xMidYMid meet" version="1.0"><defs><g/><clipPath id="0361a1bea0"><path d="M 250.390625 131.25 L 362.890625 131.25 L 362.890625 243.75 L 250.390625 243.75 Z M 250.390625 131.25 " clip-rule="nonzero"/></clipPath><clipPath id="2766e5bc35"><path d="M 267.640625 131.25 L 345.640625 131.25 C 350.214844 131.25 354.601562 133.066406 357.839844 136.300781 C 361.074219 139.539062 362.890625 143.925781 362.890625 148.5 L 362.890625 226.5 C 362.890625 231.074219 361.074219 235.460938 357.839844 238.699219 C 354.601562 241.933594 350.214844 243.75 345.640625 243.75 L 267.640625 243.75 C 263.066406 243.75 258.679688 241.933594 255.441406 238.699219 C 252.207031 235.460938 250.390625 231.074219 250.390625 226.5 L 250.390625 148.5 C 250.390625 143.925781 252.207031 139.539062 255.441406 136.300781 C 258.679688 133.066406 263.066406 131.25 267.640625 131.25 Z M 267.640625 131.25 " clip-rule="nonzero"/></clipPath><clipPath id="3605bfd6a1"><path d="M 0.390625 0.25 L 112.890625 0.25 L 112.890625 112.75 L 0.390625 112.75 Z M 0.390625 0.25 " clip-rule="nonzero"/></clipPath><clipPath id="42710e82ab"><path d="M 17.640625 0.25 L 95.640625 0.25 C 100.214844 0.25 104.601562 2.066406 107.839844 5.300781 C 111.074219 8.539062 112.890625 12.925781 112.890625 17.5 L 112.890625 95.5 C 112.890625 100.074219 111.074219 104.460938 107.839844 107.699219 C 104.601562 110.933594 100.214844 112.75 95.640625 112.75 L 17.640625 112.75 C 13.066406 112.75 8.679688 110.933594 5.441406 107.699219 C 2.207031 104.460938 0.390625 100.074219 0.390625 95.5 L 0.390625 17.5 C 0.390625 12.925781 2.207031 8.539062 5.441406 5.300781 C 8.679688 2.066406 13.066406 0.25 17.640625 0.25 Z M 17.640625 0.25 " clip-rule="nonzero"/></clipPath><clipPath id="8e2d2b2dcc"><rect x="0" width="113" y="0" height="113"/></clipPath><clipPath id="818f7b69f6"><path d="M 12.109375 131.25 L 124.609375 131.25 L 124.609375 243.75 L 12.109375 243.75 Z M 12.109375 131.25 " clip-rule="nonzero"/></clipPath><clipPath id="b695bca2e1"><path d="M 29.359375 131.25 L 107.359375 131.25 C 111.933594 131.25 116.320312 133.066406 119.558594 136.300781 C 122.792969 139.539062 124.609375 143.925781 124.609375 148.5 L 124.609375 226.5 C 124.609375 231.074219 122.792969 235.460938 119.558594 238.699219 C 116.320312 241.933594 111.933594 243.75 107.359375 243.75 L 29.359375 243.75 C 24.785156 243.75 20.398438 241.933594 17.160156 238.699219 C 13.925781 235.460938 12.109375 231.074219 12.109375 226.5 L 12.109375 148.5 C 12.109375 143.925781 13.925781 139.539062 17.160156 136.300781 C 20.398438 133.066406 24.785156 131.25 29.359375 131.25 Z M 29.359375 131.25 " clip-rule="nonzero"/></clipPath><clipPath id="fe0d9b9b43"><path d="M 0.109375 0.25 L 112.609375 0.25 L 112.609375 112.75 L 0.109375 112.75 Z M 0.109375 0.25 " clip-rule="nonzero"/></clipPath><clipPath id="ecea7a7e91"><path d="M 17.359375 0.25 L 95.359375 0.25 C 99.933594 0.25 104.320312 2.066406 107.558594 5.300781 C 110.792969 8.539062 112.609375 12.925781 112.609375 17.5 L 112.609375 95.5 C 112.609375 100.074219 110.792969 104.460938 107.558594 107.699219 C 104.320312 110.933594 99.933594 112.75 95.359375 112.75 L 17.359375 112.75 C 12.785156 112.75 8.398438 110.933594 5.160156 107.699219 C 1.925781 104.460938 0.109375 100.074219 0.109375 95.5 L 0.109375 17.5 C 0.109375 12.925781 1.925781 8.539062 5.160156 5.300781 C 8.398438 2.066406 12.785156 0.25 17.359375 0.25 Z M 17.359375 0.25 " clip-rule="nonzero"/></clipPath><clipPath id="988a404d67"><rect x="0" width="113" y="0" height="113"/></clipPath><clipPath id="6bfda94605"><path d="M 130.414062 131.25 L 242.914062 131.25 L 242.914062 243.75 L 130.414062 243.75 Z M 130.414062 131.25 " clip-rule="nonzero"/></clipPath><clipPath id="3513320a82"><path d="M 147.664062 131.25 L 225.664062 131.25 C 230.238281 131.25 234.625 133.066406 237.859375 136.300781 C 241.09375 139.539062 242.914062 143.925781 242.914062 148.5 L 242.914062 226.5 C 242.914062 231.074219 241.09375 235.460938 237.859375 238.699219 C 234.625 241.933594 230.238281 243.75 225.664062 243.75 L 147.664062 243.75 C 143.089844 243.75 138.699219 241.933594 135.464844 238.699219 C 132.230469 235.460938 130.414062 231.074219 130.414062 226.5 L 130.414062 148.5 C 130.414062 143.925781 132.230469 139.539062 135.464844 136.300781 C 138.699219 133.066406 143.089844 131.25 147.664062 131.25 Z M 147.664062 131.25 " clip-rule="nonzero"/></clipPath><clipPath id="d8035a82af"><path d="M 0.414062 0.25 L 112.914062 0.25 L 112.914062 112.75 L 0.414062 112.75 Z M 0.414062 0.25 " clip-rule="nonzero"/></clipPath><clipPath id="153b6fee46"><path d="M 17.664062 0.25 L 95.664062 0.25 C 100.238281 0.25 104.625 2.066406 107.859375 5.300781 C 111.09375 8.539062 112.914062 12.925781 112.914062 17.5 L 112.914062 95.5 C 112.914062 100.074219 111.09375 104.460938 107.859375 107.699219 C 104.625 110.933594 100.238281 112.75 95.664062 112.75 L 17.664062 112.75 C 13.089844 112.75 8.699219 110.933594 5.464844 107.699219 C 2.230469 104.460938 0.414062 100.074219 0.414062 95.5 L 0.414062 17.5 C 0.414062 12.925781 2.230469 8.539062 5.464844 5.300781 C 8.699219 2.066406 13.089844 0.25 17.664062 0.25 Z M 17.664062 0.25 " clip-rule="nonzero"/></clipPath><clipPath id="5643ac891d"><rect x="0" width="113" y="0" height="113"/></clipPath></defs><g clip-path="url(#0361a1bea0)"><g clip-path="url(#2766e5bc35)"><g transform="matrix(1, 0, 0, 1, 250, 131)"><g clip-path="url(#8e2d2b2dcc)"><g clip-path="url(#3605bfd6a1)"><g clip-path="url(#42710e82ab)"><path fill="#5e17eb" d="M 0.390625 0.25 L 112.890625 0.25 L 112.890625 112.75 L 0.390625 112.75 Z M 0.390625 0.25 " fill-opacity="1" fill-rule="nonzero"/></g></g></g></g></g></g><g fill="#000000" fill-opacity="1"><g transform="translate(288.27731, 190.499987)"><g><path d="M 5.6875 -4.6875 L 5.6875 -3.75 L 4.71875 -3.75 L 4.53125 -2.671875 L 5.4375 -2.671875 L 5.4375 -1.734375 L 4.375 -1.734375 L 4.078125 0 L 3.015625 0 L 3.3125 -1.734375 L 2.171875 -1.734375 L 1.875 0 L 0.8125 0 L 1.109375 -1.734375 L 0.296875 -1.734375 L 0.296875 -2.671875 L 1.265625 -2.671875 L 1.453125 -3.75 L 0.546875 -3.75 L 0.546875 -4.6875 L 1.609375 -4.6875 L 1.90625 -6.421875 L 2.96875 -6.421875 L 2.671875 -4.6875 L 3.8125 -4.6875 L 4.09375 -6.421875 L 5.15625 -6.421875 L 4.875 -4.6875 Z M 2.328125 -2.671875 L 3.46875 -2.671875 L 3.640625 -3.75 L 2.515625 -3.75 Z M 2.328125 -2.671875 "/></g></g><g transform="translate(294.258267, 190.499987)"><g><path d="M 2.671875 0.09375 C 2.035156 0.09375 1.523438 -0.0390625 1.140625 -0.3125 C 0.765625 -0.582031 0.519531 -0.957031 0.40625 -1.4375 L 1.375 -1.875 L 1.484375 -1.84375 C 1.578125 -1.5625 1.710938 -1.347656 1.890625 -1.203125 C 2.078125 -1.066406 2.332031 -1 2.65625 -1 C 3 -1 3.257812 -1.09375 3.4375 -1.28125 C 3.613281 -1.46875 3.703125 -1.75 3.703125 -2.125 C 3.703125 -2.5 3.613281 -2.785156 3.4375 -2.984375 C 3.257812 -3.179688 3.015625 -3.28125 2.703125 -3.28125 C 2.460938 -3.28125 2.257812 -3.226562 2.09375 -3.125 C 1.9375 -3.019531 1.804688 -2.863281 1.703125 -2.65625 L 0.65625 -2.734375 L 0.78125 -6.421875 L 4.609375 -6.421875 L 4.609375 -5.359375 L 1.84375 -5.359375 L 1.78125 -3.71875 L 1.875 -3.703125 C 2.03125 -3.898438 2.210938 -4.046875 2.421875 -4.140625 C 2.628906 -4.242188 2.878906 -4.296875 3.171875 -4.296875 C 3.535156 -4.296875 3.851562 -4.210938 4.125 -4.046875 C 4.40625 -3.890625 4.617188 -3.648438 4.765625 -3.328125 C 4.910156 -3.003906 4.984375 -2.613281 4.984375 -2.15625 C 4.984375 -1.6875 4.894531 -1.28125 4.71875 -0.9375 C 4.539062 -0.601562 4.273438 -0.347656 3.921875 -0.171875 C 3.578125 0.00390625 3.160156 0.09375 2.671875 0.09375 Z M 2.671875 0.09375 "/></g></g><g transform="translate(299.672329, 190.499987)"><g><path d="M 4.796875 -2.15625 L 1.671875 -2.15625 C 1.710938 -1.726562 1.832031 -1.414062 2.03125 -1.21875 C 2.238281 -1.03125 2.519531 -0.9375 2.875 -0.9375 C 3.15625 -0.9375 3.378906 -0.988281 3.546875 -1.09375 C 3.722656 -1.195312 3.863281 -1.351562 3.96875 -1.5625 L 4.0625 -1.5625 L 4.875 -1.046875 C 4.707031 -0.710938 4.460938 -0.4375 4.140625 -0.21875 C 3.828125 -0.0078125 3.40625 0.09375 2.875 0.09375 C 2.375 0.09375 1.941406 0 1.578125 -0.1875 C 1.210938 -0.382812 0.929688 -0.671875 0.734375 -1.046875 C 0.535156 -1.421875 0.4375 -1.878906 0.4375 -2.421875 C 0.4375 -2.972656 0.539062 -3.4375 0.75 -3.8125 C 0.957031 -4.1875 1.238281 -4.46875 1.59375 -4.65625 C 1.945312 -4.84375 2.34375 -4.9375 2.78125 -4.9375 C 3.46875 -4.9375 3.992188 -4.753906 4.359375 -4.390625 C 4.722656 -4.023438 4.90625 -3.492188 4.90625 -2.796875 C 4.90625 -2.535156 4.894531 -2.335938 4.875 -2.203125 Z M 3.75 -2.9375 C 3.738281 -3.300781 3.648438 -3.566406 3.484375 -3.734375 C 3.328125 -3.910156 3.09375 -4 2.78125 -4 C 2.164062 -4 1.804688 -3.644531 1.703125 -2.9375 Z M 3.75 -2.9375 "/></g></g><g transform="translate(304.941371, 190.499987)"><g><path d="M 0.34375 0 L 0.34375 -1.046875 L 1.890625 -1.046875 L 1.890625 -5.046875 L 1.78125 -5.078125 C 1.5625 -4.972656 1.347656 -4.890625 1.140625 -4.828125 C 0.929688 -4.765625 0.6875 -4.71875 0.40625 -4.6875 L 0.40625 -5.765625 C 1.125 -5.910156 1.703125 -6.128906 2.140625 -6.421875 L 3.140625 -6.421875 L 3.140625 -1.046875 L 4.53125 -1.046875 L 4.53125 0 Z M 0.34375 0 "/></g></g></g><g fill="#000000" fill-opacity="1"><g transform="translate(309.353481, 190.499987)"><g><path d="M 2.140625 0 L 0.84375 0 L 3.046875 -5.265625 L 3.03125 -5.359375 L 0.171875 -5.359375 L 0.171875 -6.421875 L 4.34375 -6.421875 L 4.34375 -5.296875 Z M 2.140625 0 "/></g></g><g transform="translate(313.910609, 190.499987)"><g><path d="M 4.796875 -2.15625 L 1.671875 -2.15625 C 1.710938 -1.726562 1.832031 -1.414062 2.03125 -1.21875 C 2.238281 -1.03125 2.519531 -0.9375 2.875 -0.9375 C 3.15625 -0.9375 3.378906 -0.988281 3.546875 -1.09375 C 3.722656 -1.195312 3.863281 -1.351562 3.96875 -1.5625 L 4.0625 -1.5625 L 4.875 -1.046875 C 4.707031 -0.710938 4.460938 -0.4375 4.140625 -0.21875 C 3.828125 -0.0078125 3.40625 0.09375 2.875 0.09375 C 2.375 0.09375 1.941406 0 1.578125 -0.1875 C 1.210938 -0.382812 0.929688 -0.671875 0.734375 -1.046875 C 0.535156 -1.421875 0.4375 -1.878906 0.4375 -2.421875 C 0.4375 -2.972656 0.539062 -3.4375 0.75 -3.8125 C 0.957031 -4.1875 1.238281 -4.46875 1.59375 -4.65625 C 1.945312 -4.84375 2.34375 -4.9375 2.78125 -4.9375 C 3.46875 -4.9375 3.992188 -4.753906 4.359375 -4.390625 C 4.722656 -4.023438 4.90625 -3.492188 4.90625 -2.796875 C 4.90625 -2.535156 4.894531 -2.335938 4.875 -2.203125 Z M 3.75 -2.9375 C 3.738281 -3.300781 3.648438 -3.566406 3.484375 -3.734375 C 3.328125 -3.910156 3.09375 -4 2.78125 -4 C 2.164062 -4 1.804688 -3.644531 1.703125 -2.9375 Z M 3.75 -2.9375 "/></g></g><g transform="translate(319.179652, 190.499987)"><g><path d="M 3.390625 0.09375 C 2.773438 0.09375 2.316406 -0.140625 2.015625 -0.609375 L 1.921875 -0.578125 L 1.921875 0 L 0.703125 0 L 0.703125 -6.796875 L 1.921875 -6.796875 L 1.921875 -4.28125 L 2.015625 -4.265625 C 2.179688 -4.492188 2.375 -4.660156 2.59375 -4.765625 C 2.820312 -4.878906 3.097656 -4.9375 3.421875 -4.9375 C 3.804688 -4.9375 4.144531 -4.84375 4.4375 -4.65625 C 4.726562 -4.476562 4.957031 -4.195312 5.125 -3.8125 C 5.289062 -3.4375 5.375 -2.972656 5.375 -2.421875 C 5.375 -1.867188 5.285156 -1.40625 5.109375 -1.03125 C 4.941406 -0.65625 4.707031 -0.375 4.40625 -0.1875 C 4.113281 0 3.773438 0.09375 3.390625 0.09375 Z M 3.015625 -0.9375 C 3.378906 -0.9375 3.65625 -1.054688 3.84375 -1.296875 C 4.03125 -1.535156 4.125 -1.910156 4.125 -2.421875 C 4.125 -2.929688 4.03125 -3.304688 3.84375 -3.546875 C 3.65625 -3.785156 3.378906 -3.90625 3.015625 -3.90625 C 2.671875 -3.90625 2.398438 -3.78125 2.203125 -3.53125 C 2.003906 -3.289062 1.90625 -2.921875 1.90625 -2.421875 C 1.90625 -1.921875 2.003906 -1.546875 2.203125 -1.296875 C 2.398438 -1.054688 2.671875 -0.9375 3.015625 -0.9375 Z M 3.015625 -0.9375 "/></g></g></g><g clip-path="url(#818f7b69f6)"><g clip-path="url(#b695bca2e1)"><g transform="matrix(1, 0, 0, 1, 12, 131)"><g clip-path="url(#988a404d67)"><g clip-path="url(#fe0d9b9b43)"><g clip-path="url(#ecea7a7e91)"><path fill="#bd00ff" d="M 0.109375 0.25 L 112.609375 0.25 L 112.609375 112.75 L 0.109375 112.75 Z M 0.109375 0.25 " fill-opacity="1" fill-rule="nonzero"/></g></g></g></g></g></g><g fill="#000000" fill-opacity="1"><g transform="translate(49.773439, 190.499987)"><g><path d="M 5.6875 -4.6875 L 5.6875 -3.75 L 4.71875 -3.75 L 4.53125 -2.671875 L 5.4375 -2.671875 L 5.4375 -1.734375 L 4.375 -1.734375 L 4.078125 0 L 3.015625 0 L 3.3125 -1.734375 L 2.171875 -1.734375 L 1.875 0 L 0.8125 0 L 1.109375 -1.734375 L 0.296875 -1.734375 L 0.296875 -2.671875 L 1.265625 -2.671875 L 1.453125 -3.75 L 0.546875 -3.75 L 0.546875 -4.6875 L 1.609375 -4.6875 L 1.90625 -6.421875 L 2.96875 -6.421875 L 2.671875 -4.6875 L 3.8125 -4.6875 L 4.09375 -6.421875 L 5.15625 -6.421875 L 4.875 -4.6875 Z M 2.328125 -2.671875 L 3.46875 -2.671875 L 3.640625 -3.75 L 2.515625 -3.75 Z M 2.328125 -2.671875 "/></g></g><g transform="translate(55.754396, 190.499987)"><g><path d="M 3.390625 0.09375 C 2.773438 0.09375 2.316406 -0.140625 2.015625 -0.609375 L 1.921875 -0.578125 L 1.921875 0 L 0.703125 0 L 0.703125 -6.796875 L 1.921875 -6.796875 L 1.921875 -4.28125 L 2.015625 -4.265625 C 2.179688 -4.492188 2.375 -4.660156 2.59375 -4.765625 C 2.820312 -4.878906 3.097656 -4.9375 3.421875 -4.9375 C 3.804688 -4.9375 4.144531 -4.84375 4.4375 -4.65625 C 4.726562 -4.476562 4.957031 -4.195312 5.125 -3.8125 C 5.289062 -3.4375 5.375 -2.972656 5.375 -2.421875 C 5.375 -1.867188 5.285156 -1.40625 5.109375 -1.03125 C 4.941406 -0.65625 4.707031 -0.375 4.40625 -0.1875 C 4.113281 0 3.773438 0.09375 3.390625 0.09375 Z M 3.015625 -0.9375 C 3.378906 -0.9375 3.65625 -1.054688 3.84375 -1.296875 C 4.03125 -1.535156 4.125 -1.910156 4.125 -2.421875 C 4.125 -2.929688 4.03125 -3.304688 3.84375 -3.546875 C 3.65625 -3.785156 3.378906 -3.90625 3.015625 -3.90625 C 2.671875 -3.90625 2.398438 -3.78125 2.203125 -3.53125 C 2.003906 -3.289062 1.90625 -2.921875 1.90625 -2.421875 C 1.90625 -1.921875 2.003906 -1.546875 2.203125 -1.296875 C 2.398438 -1.054688 2.671875 -0.9375 3.015625 -0.9375 Z M 3.015625 -0.9375 "/></g></g><g transform="translate(61.559571, 190.499987)"><g><path d="M 2.390625 0.09375 C 2.003906 0.09375 1.664062 0 1.375 -0.1875 C 1.082031 -0.375 0.851562 -0.65625 0.6875 -1.03125 C 0.519531 -1.40625 0.4375 -1.867188 0.4375 -2.421875 C 0.4375 -2.972656 0.519531 -3.4375 0.6875 -3.8125 C 0.863281 -4.1875 1.101562 -4.46875 1.40625 -4.65625 C 1.707031 -4.84375 2.054688 -4.9375 2.453125 -4.9375 C 2.753906 -4.9375 3.015625 -4.882812 3.234375 -4.78125 C 3.460938 -4.675781 3.648438 -4.515625 3.796875 -4.296875 L 3.890625 -4.3125 L 3.890625 -6.796875 L 5.109375 -6.796875 L 5.109375 0 L 3.890625 0 L 3.890625 -0.625 L 3.796875 -0.640625 C 3.660156 -0.410156 3.472656 -0.226562 3.234375 -0.09375 C 3.003906 0.03125 2.722656 0.09375 2.390625 0.09375 Z M 2.796875 -0.9375 C 3.140625 -0.9375 3.410156 -1.054688 3.609375 -1.296875 C 3.804688 -1.546875 3.90625 -1.921875 3.90625 -2.421875 C 3.90625 -2.921875 3.804688 -3.289062 3.609375 -3.53125 C 3.410156 -3.78125 3.140625 -3.90625 2.796875 -3.90625 C 2.429688 -3.90625 2.15625 -3.785156 1.96875 -3.546875 C 1.78125 -3.304688 1.6875 -2.929688 1.6875 -2.421875 C 1.6875 -1.910156 1.78125 -1.535156 1.96875 -1.296875 C 2.15625 -1.054688 2.429688 -0.9375 2.796875 -0.9375 Z M 2.796875 -0.9375 "/></g></g><g transform="translate(67.369141, 190.499987)"><g><path d="M 3.140625 0.09375 C 2.609375 0.09375 2.148438 -0.0195312 1.765625 -0.25 C 1.378906 -0.488281 1.078125 -0.851562 0.859375 -1.34375 C 0.648438 -1.832031 0.546875 -2.457031 0.546875 -3.21875 C 0.546875 -3.96875 0.648438 -4.585938 0.859375 -5.078125 C 1.078125 -5.566406 1.378906 -5.925781 1.765625 -6.15625 C 2.148438 -6.394531 2.609375 -6.515625 3.140625 -6.515625 C 3.660156 -6.515625 4.113281 -6.394531 4.5 -6.15625 C 4.894531 -5.925781 5.195312 -5.566406 5.40625 -5.078125 C 5.625 -4.585938 5.734375 -3.96875 5.734375 -3.21875 C 5.734375 -2.457031 5.625 -1.832031 5.40625 -1.34375 C 5.195312 -0.851562 4.894531 -0.488281 4.5 -0.25 C 4.113281 -0.0195312 3.660156 0.09375 3.140625 0.09375 Z M 3.140625 -0.984375 C 3.421875 -0.984375 3.660156 -1.050781 3.859375 -1.1875 C 4.054688 -1.332031 4.203125 -1.566406 4.296875 -1.890625 C 4.398438 -2.222656 4.453125 -2.664062 4.453125 -3.21875 C 4.453125 -3.757812 4.398438 -4.191406 4.296875 -4.515625 C 4.203125 -4.847656 4.054688 -5.082031 3.859375 -5.21875 C 3.660156 -5.363281 3.421875 -5.4375 3.140625 -5.4375 C 2.847656 -5.4375 2.601562 -5.363281 2.40625 -5.21875 C 2.21875 -5.082031 2.070312 -4.847656 1.96875 -4.515625 C 1.863281 -4.191406 1.8125 -3.757812 1.8125 -3.21875 C 1.8125 -2.664062 1.863281 -2.222656 1.96875 -1.890625 C 2.070312 -1.566406 2.21875 -1.332031 2.40625 -1.1875 C 2.601562 -1.050781 2.847656 -0.984375 3.140625 -0.984375 Z M 3.140625 -0.984375 "/></g></g><g transform="translate(73.648926, 190.499987)"><g><path d="M 3.140625 0.09375 C 2.609375 0.09375 2.148438 -0.0195312 1.765625 -0.25 C 1.378906 -0.488281 1.078125 -0.851562 0.859375 -1.34375 C 0.648438 -1.832031 0.546875 -2.457031 0.546875 -3.21875 C 0.546875 -3.96875 0.648438 -4.585938 0.859375 -5.078125 C 1.078125 -5.566406 1.378906 -5.925781 1.765625 -6.15625 C 2.148438 -6.394531 2.609375 -6.515625 3.140625 -6.515625 C 3.660156 -6.515625 4.113281 -6.394531 4.5 -6.15625 C 4.894531 -5.925781 5.195312 -5.566406 5.40625 -5.078125 C 5.625 -4.585938 5.734375 -3.96875 5.734375 -3.21875 C 5.734375 -2.457031 5.625 -1.832031 5.40625 -1.34375 C 5.195312 -0.851562 4.894531 -0.488281 4.5 -0.25 C 4.113281 -0.0195312 3.660156 0.09375 3.140625 0.09375 Z M 3.140625 -0.984375 C 3.421875 -0.984375 3.660156 -1.050781 3.859375 -1.1875 C 4.054688 -1.332031 4.203125 -1.566406 4.296875 -1.890625 C 4.398438 -2.222656 4.453125 -2.664062 4.453125 -3.21875 C 4.453125 -3.757812 4.398438 -4.191406 4.296875 -4.515625 C 4.203125 -4.847656 4.054688 -5.082031 3.859375 -5.21875 C 3.660156 -5.363281 3.421875 -5.4375 3.140625 -5.4375 C 2.847656 -5.4375 2.601562 -5.363281 2.40625 -5.21875 C 2.21875 -5.082031 2.070312 -4.847656 1.96875 -4.515625 C 1.863281 -4.191406 1.8125 -3.757812 1.8125 -3.21875 C 1.8125 -2.664062 1.863281 -2.222656 1.96875 -1.890625 C 2.070312 -1.566406 2.21875 -1.332031 2.40625 -1.1875 C 2.601562 -1.050781 2.847656 -0.984375 3.140625 -0.984375 Z M 3.140625 -0.984375 "/></g></g><g transform="translate(79.92871, 190.499987)"><g><path d="M 0.84375 0 L 0.84375 -3.890625 L 0.15625 -3.890625 L 0.15625 -4.859375 L 0.84375 -4.859375 C 0.800781 -5.054688 0.78125 -5.242188 0.78125 -5.421875 C 0.78125 -5.734375 0.847656 -6 0.984375 -6.21875 C 1.128906 -6.4375 1.332031 -6.601562 1.59375 -6.71875 C 1.851562 -6.832031 2.164062 -6.890625 2.53125 -6.890625 C 3.0625 -6.890625 3.460938 -6.796875 3.734375 -6.609375 L 3.453125 -5.71875 L 3.359375 -5.703125 C 3.171875 -5.828125 2.9375 -5.890625 2.65625 -5.890625 C 2.4375 -5.890625 2.269531 -5.832031 2.15625 -5.71875 C 2.050781 -5.613281 2 -5.472656 2 -5.296875 C 2 -5.210938 2.003906 -5.132812 2.015625 -5.0625 C 2.023438 -5 2.039062 -4.929688 2.0625 -4.859375 L 3.453125 -4.859375 L 3.453125 -3.890625 L 2.0625 -3.890625 L 2.0625 0 Z M 0.84375 0 "/></g></g><g transform="translate(83.426757, 190.499987)"><g><path d="M 0.84375 0 L 0.84375 -3.890625 L 0.15625 -3.890625 L 0.15625 -4.859375 L 0.84375 -4.859375 C 0.800781 -5.054688 0.78125 -5.242188 0.78125 -5.421875 C 0.78125 -5.734375 0.847656 -6 0.984375 -6.21875 C 1.128906 -6.4375 1.332031 -6.601562 1.59375 -6.71875 C 1.851562 -6.832031 2.164062 -6.890625 2.53125 -6.890625 C 3.0625 -6.890625 3.460938 -6.796875 3.734375 -6.609375 L 3.453125 -5.71875 L 3.359375 -5.703125 C 3.171875 -5.828125 2.9375 -5.890625 2.65625 -5.890625 C 2.4375 -5.890625 2.269531 -5.832031 2.15625 -5.71875 C 2.050781 -5.613281 2 -5.472656 2 -5.296875 C 2 -5.210938 2.003906 -5.132812 2.015625 -5.0625 C 2.023438 -5 2.039062 -4.929688 2.0625 -4.859375 L 3.453125 -4.859375 L 3.453125 -3.890625 L 2.0625 -3.890625 L 2.0625 0 Z M 0.84375 0 "/></g></g></g><g clip-path="url(#6bfda94605)"><g clip-path="url(#3513320a82)"><g transform="matrix(1, 0, 0, 1, 130, 131)"><g clip-path="url(#5643ac891d)"><g clip-path="url(#d8035a82af)"><g clip-path="url(#153b6fee46)"><path fill="#ffd815" d="M 0.414062 0.25 L 112.914062 0.25 L 112.914062 112.75 L 0.414062 112.75 Z M 0.414062 0.25 " fill-opacity="1" fill-rule="nonzero"/></g></g></g></g></g></g><g fill="#000000" fill-opacity="1"><g transform="translate(169.401219, 184.499988)"><g><path d="M 5.6875 -4.6875 L 5.6875 -3.75 L 4.71875 -3.75 L 4.53125 -2.671875 L 5.4375 -2.671875 L 5.4375 -1.734375 L 4.375 -1.734375 L 4.078125 0 L 3.015625 0 L 3.3125 -1.734375 L 2.171875 -1.734375 L 1.875 0 L 0.8125 0 L 1.109375 -1.734375 L 0.296875 -1.734375 L 0.296875 -2.671875 L 1.265625 -2.671875 L 1.453125 -3.75 L 0.546875 -3.75 L 0.546875 -4.6875 L 1.609375 -4.6875 L 1.90625 -6.421875 L 2.96875 -6.421875 L 2.671875 -4.6875 L 3.8125 -4.6875 L 4.09375 -6.421875 L 5.15625 -6.421875 L 4.875 -4.6875 Z M 2.328125 -2.671875 L 3.46875 -2.671875 L 3.640625 -3.75 L 2.515625 -3.75 Z M 2.328125 -2.671875 "/></g></g><g transform="translate(175.382176, 184.499988)"><g><path d="M 0.84375 0 L 0.84375 -3.890625 L 0.15625 -3.890625 L 0.15625 -4.859375 L 0.84375 -4.859375 C 0.800781 -5.054688 0.78125 -5.242188 0.78125 -5.421875 C 0.78125 -5.734375 0.847656 -6 0.984375 -6.21875 C 1.128906 -6.4375 1.332031 -6.601562 1.59375 -6.71875 C 1.851562 -6.832031 2.164062 -6.890625 2.53125 -6.890625 C 3.0625 -6.890625 3.460938 -6.796875 3.734375 -6.609375 L 3.453125 -5.71875 L 3.359375 -5.703125 C 3.171875 -5.828125 2.9375 -5.890625 2.65625 -5.890625 C 2.4375 -5.890625 2.269531 -5.832031 2.15625 -5.71875 C 2.050781 -5.613281 2 -5.472656 2 -5.296875 C 2 -5.210938 2.003906 -5.132812 2.015625 -5.0625 C 2.023438 -5 2.039062 -4.929688 2.0625 -4.859375 L 3.453125 -4.859375 L 3.453125 -3.890625 L 2.0625 -3.890625 L 2.0625 0 Z M 0.84375 0 "/></g></g></g><g fill="#000000" fill-opacity="1"><g transform="translate(178.990086, 184.499988)"><g><path d="M 0.84375 0 L 0.84375 -3.890625 L 0.15625 -3.890625 L 0.15625 -4.859375 L 0.84375 -4.859375 C 0.800781 -5.054688 0.78125 -5.242188 0.78125 -5.421875 C 0.78125 -5.734375 0.847656 -6 0.984375 -6.21875 C 1.128906 -6.4375 1.332031 -6.601562 1.59375 -6.71875 C 1.851562 -6.832031 2.164062 -6.890625 2.53125 -6.890625 C 3.0625 -6.890625 3.460938 -6.796875 3.734375 -6.609375 L 3.453125 -5.71875 L 3.359375 -5.703125 C 3.171875 -5.828125 2.9375 -5.890625 2.65625 -5.890625 C 2.4375 -5.890625 2.269531 -5.832031 2.15625 -5.71875 C 2.050781 -5.613281 2 -5.472656 2 -5.296875 C 2 -5.210938 2.003906 -5.132812 2.015625 -5.0625 C 2.023438 -5 2.039062 -4.929688 2.0625 -4.859375 L 3.453125 -4.859375 L 3.453125 -3.890625 L 2.0625 -3.890625 L 2.0625 0 Z M 0.84375 0 "/></g></g></g><g fill="#000000" fill-opacity="1"><g transform="translate(182.444187, 184.499988)"><g><path d="M 2.390625 0.09375 C 2.003906 0.09375 1.664062 0 1.375 -0.1875 C 1.082031 -0.375 0.851562 -0.65625 0.6875 -1.03125 C 0.519531 -1.40625 0.4375 -1.867188 0.4375 -2.421875 C 0.4375 -2.972656 0.519531 -3.4375 0.6875 -3.8125 C 0.863281 -4.1875 1.101562 -4.46875 1.40625 -4.65625 C 1.707031 -4.84375 2.054688 -4.9375 2.453125 -4.9375 C 2.753906 -4.9375 3.015625 -4.882812 3.234375 -4.78125 C 3.460938 -4.675781 3.648438 -4.515625 3.796875 -4.296875 L 3.890625 -4.3125 L 3.890625 -6.796875 L 5.109375 -6.796875 L 5.109375 0 L 3.890625 0 L 3.890625 -0.625 L 3.796875 -0.640625 C 3.660156 -0.410156 3.472656 -0.226562 3.234375 -0.09375 C 3.003906 0.03125 2.722656 0.09375 2.390625 0.09375 Z M 2.796875 -0.9375 C 3.140625 -0.9375 3.410156 -1.054688 3.609375 -1.296875 C 3.804688 -1.546875 3.90625 -1.921875 3.90625 -2.421875 C 3.90625 -2.921875 3.804688 -3.289062 3.609375 -3.53125 C 3.410156 -3.78125 3.140625 -3.90625 2.796875 -3.90625 C 2.429688 -3.90625 2.15625 -3.785156 1.96875 -3.546875 C 1.78125 -3.304688 1.6875 -2.929688 1.6875 -2.421875 C 1.6875 -1.910156 1.78125 -1.535156 1.96875 -1.296875 C 2.15625 -1.054688 2.429688 -0.9375 2.796875 -0.9375 Z M 2.796875 -0.9375 "/></g></g><g transform="translate(188.253757, 184.499988)"><g><path d="M 2.75 0.09375 C 2.238281 0.09375 1.804688 0.015625 1.453125 -0.140625 C 1.109375 -0.296875 0.84375 -0.519531 0.65625 -0.8125 C 0.476562 -1.113281 0.390625 -1.460938 0.390625 -1.859375 C 0.390625 -2.234375 0.484375 -2.554688 0.671875 -2.828125 C 0.859375 -3.097656 1.128906 -3.3125 1.484375 -3.46875 L 1.484375 -3.5625 C 1.234375 -3.71875 1.039062 -3.898438 0.90625 -4.109375 C 0.769531 -4.328125 0.703125 -4.582031 0.703125 -4.875 C 0.703125 -5.195312 0.78125 -5.484375 0.9375 -5.734375 C 1.101562 -5.984375 1.335938 -6.175781 1.640625 -6.3125 C 1.953125 -6.445312 2.320312 -6.515625 2.75 -6.515625 C 3.1875 -6.515625 3.554688 -6.445312 3.859375 -6.3125 C 4.171875 -6.175781 4.40625 -5.984375 4.5625 -5.734375 C 4.726562 -5.484375 4.8125 -5.195312 4.8125 -4.875 C 4.8125 -4.582031 4.742188 -4.328125 4.609375 -4.109375 C 4.472656 -3.898438 4.273438 -3.71875 4.015625 -3.5625 L 4.015625 -3.46875 C 4.390625 -3.320312 4.664062 -3.109375 4.84375 -2.828125 C 5.019531 -2.554688 5.109375 -2.234375 5.109375 -1.859375 C 5.109375 -1.460938 5.019531 -1.113281 4.84375 -0.8125 C 4.664062 -0.519531 4.398438 -0.296875 4.046875 -0.140625 C 3.691406 0.015625 3.257812 0.09375 2.75 0.09375 Z M 2.75 -3.921875 C 3.007812 -3.921875 3.210938 -3.988281 3.359375 -4.125 C 3.515625 -4.269531 3.59375 -4.46875 3.59375 -4.71875 C 3.59375 -4.96875 3.515625 -5.164062 3.359375 -5.3125 C 3.210938 -5.457031 3.007812 -5.53125 2.75 -5.53125 C 2.488281 -5.53125 2.285156 -5.457031 2.140625 -5.3125 C 1.992188 -5.175781 1.921875 -4.976562 1.921875 -4.71875 C 1.921875 -4.46875 1.992188 -4.269531 2.140625 -4.125 C 2.285156 -3.988281 2.488281 -3.921875 2.75 -3.921875 Z M 2.75 -0.984375 C 3.09375 -0.984375 3.359375 -1.066406 3.546875 -1.234375 C 3.734375 -1.410156 3.828125 -1.648438 3.828125 -1.953125 C 3.828125 -2.265625 3.734375 -2.503906 3.546875 -2.671875 C 3.359375 -2.847656 3.09375 -2.9375 2.75 -2.9375 C 2.40625 -2.9375 2.140625 -2.847656 1.953125 -2.671875 C 1.765625 -2.503906 1.671875 -2.265625 1.671875 -1.953125 C 1.671875 -1.648438 1.765625 -1.410156 1.953125 -1.234375 C 2.140625 -1.066406 2.40625 -0.984375 2.75 -0.984375 Z M 2.75 -0.984375 "/></g></g><g transform="translate(193.764499, 184.499988)"><g><path d="M 0.34375 0 L 0.34375 -1.046875 L 1.890625 -1.046875 L 1.890625 -5.046875 L 1.78125 -5.078125 C 1.5625 -4.972656 1.347656 -4.890625 1.140625 -4.828125 C 0.929688 -4.765625 0.6875 -4.71875 0.40625 -4.6875 L 0.40625 -5.765625 C 1.125 -5.910156 1.703125 -6.128906 2.140625 -6.421875 L 3.140625 -6.421875 L 3.140625 -1.046875 L 4.53125 -1.046875 L 4.53125 0 Z M 0.34375 0 "/></g></g><g transform="translate(198.506198, 184.499988)"><g><path d="M 2.671875 0.09375 C 2.035156 0.09375 1.523438 -0.0390625 1.140625 -0.3125 C 0.765625 -0.582031 0.519531 -0.957031 0.40625 -1.4375 L 1.375 -1.875 L 1.484375 -1.84375 C 1.578125 -1.5625 1.710938 -1.347656 1.890625 -1.203125 C 2.078125 -1.066406 2.332031 -1 2.65625 -1 C 3 -1 3.257812 -1.09375 3.4375 -1.28125 C 3.613281 -1.46875 3.703125 -1.75 3.703125 -2.125 C 3.703125 -2.5 3.613281 -2.785156 3.4375 -2.984375 C 3.257812 -3.179688 3.015625 -3.28125 2.703125 -3.28125 C 2.460938 -3.28125 2.257812 -3.226562 2.09375 -3.125 C 1.9375 -3.019531 1.804688 -2.863281 1.703125 -2.65625 L 0.65625 -2.734375 L 0.78125 -6.421875 L 4.609375 -6.421875 L 4.609375 -5.359375 L 1.84375 -5.359375 L 1.78125 -3.71875 L 1.875 -3.703125 C 2.03125 -3.898438 2.210938 -4.046875 2.421875 -4.140625 C 2.628906 -4.242188 2.878906 -4.296875 3.171875 -4.296875 C 3.535156 -4.296875 3.851562 -4.210938 4.125 -4.046875 C 4.40625 -3.890625 4.617188 -3.648438 4.765625 -3.328125 C 4.910156 -3.003906 4.984375 -2.613281 4.984375 -2.15625 C 4.984375 -1.6875 4.894531 -1.28125 4.71875 -0.9375 C 4.539062 -0.601562 4.273438 -0.347656 3.921875 -0.171875 C 3.578125 0.00390625 3.160156 0.09375 2.671875 0.09375 Z M 2.671875 0.09375 "/></g></g></g></svg>